<svg width="39" height="54" viewBox="0 0 39 54" fill="none" xmlns="http://www.w3.org/2000/svg">
<g id="Layer_1" clip-path="url(#clip0_436_536)">
<g id="Group 133572">
<path id="Vector" d="M34.87 5.59424C31.1903 1.9433 26.3117 -0.0356214 21.1263 -0.000454784C16.1518 0.0411058 11.4298 1.99445 7.83325 5.50473C4.23666 9.015 2.16822 13.6858 2.00838 18.6571C1.94444 20.6232 2.17781 22.5701 2.69572 24.4436C2.88115 25.1149 3.09854 25.7639 3.3511 26.3937L3.91697 27.6789L16.6697 51.247C17.6032 52.9701 19.3264 53.9963 21.2861 53.9963C23.2458 53.9963 24.969 52.9669 25.9025 51.247L38.6552 27.6789L39.1955 26.4545C39.4545 25.8087 39.6847 25.1309 39.8765 24.4404C40.34 22.7684 40.5734 21.0324 40.5734 19.2837C40.5734 14.1046 38.5465 9.24198 34.87 5.59104V5.59424ZM38.6456 24.1015C38.4666 24.7473 38.2524 25.3803 38.019 25.9621L37.5171 27.0939L24.7772 50.6395C24.0707 51.9439 22.7663 52.7208 21.2861 52.7208C19.8059 52.7208 18.4983 51.9439 17.795 50.6395L5.07747 27.1418L4.53078 25.9046C4.307 25.3387 4.10239 24.7313 3.92975 24.1079C3.44701 22.3591 3.22962 20.5401 3.28716 18.7018C3.59088 9.17165 11.5993 1.35506 21.1358 1.27833C25.9824 1.23038 30.5349 3.09421 33.9685 6.50218C37.402 9.91015 39.2946 14.4498 39.2946 19.2869C39.2946 20.9205 39.0772 22.5414 38.6456 24.1015Z" fill="white"/>
<path id="Vector_2" d="M21.2429 9.84027C15.8656 9.84027 11.4922 14.2137 11.4922 19.591C11.4922 24.9683 15.8656 29.3418 21.2429 29.3418C26.6202 29.3418 30.9937 24.9683 30.9937 19.591C30.9937 14.2137 26.6202 9.84027 21.2429 9.84027ZM21.2429 28.063C16.5722 28.063 12.771 24.2618 12.771 19.591C12.771 14.9203 16.5722 11.1191 21.2429 11.1191C25.9137 11.1191 29.7149 14.9203 29.7149 19.591C29.7149 24.2618 25.9137 28.063 21.2429 28.063Z" fill="white"/>
</g>
</g>
<defs>
<clipPath id="clip0_436_536">
<rect width="38.5778" height="54" fill="white"/>
</clipPath>
</defs>
</svg>
