<svg width="18" height="20" viewBox="0 0 18 20" fill="none" xmlns="http://www.w3.org/2000/svg">
<g id="Calendar">
<path id="Calendar_2" fill-rule="evenodd" clip-rule="evenodd" d="M13.4483 0.743865V1.77876C16.457 2.07065 17.9961 3.73355 17.9961 6.72324V14.9935C17.9961 18.3193 16.1004 20.0088 12.37 20.0088H5.62218C1.89175 20.0088 -0.00390625 18.3193 -0.00390625 14.9935V6.72324C-0.00390625 4.73307 0.674355 3.30898 2.06566 2.47753C2.28498 2.32783 2.56872 2.31738 2.79811 2.45055C3.0275 2.58373 3.16296 2.83755 3.14779 3.10577C3.13261 3.37399 2.96942 3.61034 2.72653 3.71586C1.80479 4.26427 1.37001 5.21955 1.37001 6.72324V6.9886H14.057C14.4364 6.9886 14.7439 7.30145 14.7439 7.68738C14.7439 8.0733 14.4364 8.38615 14.057 8.38615H1.37001V14.9935C1.37001 17.5321 2.60479 18.5847 5.62218 18.6024H12.37C15.3439 18.6024 16.6135 17.5233 16.6135 14.9847V6.7144C16.6135 4.50309 15.6483 3.43282 13.4483 3.1763V3.84854C13.3975 4.20685 13.0891 4.46843 12.7335 4.45478C12.3779 4.44112 12.0897 4.15665 12.0657 3.79547V0.681948C12.0724 0.494972 12.1526 0.318556 12.2882 0.192202C12.4239 0.0658479 12.6037 0.000110977 12.7874 0.00971025C13.1661 0.0333999 13.4584 0.358021 13.4483 0.743865ZM5.70487 4.30158C5.57415 4.43288 5.39718 4.50546 5.21349 4.50309C4.83749 4.49344 4.53904 4.17802 4.54392 3.79547V0.743865C4.58345 0.385875 4.88108 0.115236 5.23522 0.115236C5.58937 0.115236 5.887 0.385875 5.92653 0.743865V1.708H9.85696C10.2364 1.708 10.5439 2.02085 10.5439 2.40677C10.5439 2.79269 10.2364 3.10554 9.85696 3.10554H5.90914V3.80432C5.90915 3.99119 5.83558 4.17028 5.70487 4.30158ZM13.1874 10.624C12.7072 10.624 12.3178 11.02 12.3178 11.5085C12.3178 11.997 12.7072 12.393 13.1874 12.393C13.6676 12.393 14.057 11.997 14.057 11.5085C14.057 11.2724 13.9642 11.0461 13.7992 10.8799C13.6342 10.7138 13.4108 10.6216 13.1787 10.624H13.1874ZM8.14392 11.5085C8.14392 11.02 8.53324 10.624 9.01348 10.624C9.49373 10.624 9.88305 11.02 9.88305 11.5085C9.88305 11.997 9.49373 12.393 9.01348 12.393C8.53324 12.393 8.14392 11.997 8.14392 11.5085ZM4.84827 10.624C4.36802 10.624 3.9787 11.02 3.9787 11.5085C3.9787 11.997 4.36802 12.393 4.84827 12.393C5.32852 12.393 5.71783 11.997 5.71783 11.5085C5.71784 11.2724 5.62504 11.0461 5.46008 10.8799C5.29512 10.7138 5.0717 10.6216 4.83957 10.624H4.84827ZM12.3178 15.0908C12.3178 14.6023 12.7072 14.2063 13.1874 14.2063H13.1787C13.4108 14.204 13.6342 14.2961 13.7992 14.4622C13.9642 14.6284 14.057 14.8547 14.057 15.0908C14.057 15.5793 13.6676 15.9754 13.1874 15.9754C12.7072 15.9754 12.3178 15.5793 12.3178 15.0908ZM9.01348 14.2063C8.53324 14.2063 8.14392 14.6023 8.14392 15.0908C8.14392 15.5793 8.53324 15.9754 9.01348 15.9754C9.49373 15.9754 9.88305 15.5793 9.88305 15.0908C9.88305 14.6023 9.49373 14.2063 9.01348 14.2063ZM3.9787 15.0908C3.9787 14.6023 4.36802 14.2063 4.84827 14.2063H4.83957C5.0717 14.204 5.29512 14.2961 5.46008 14.4622C5.62504 14.6284 5.71784 14.8547 5.71783 15.0908C5.71783 15.5793 5.32852 15.9754 4.84827 15.9754C4.36802 15.9754 3.9787 15.5793 3.9787 15.0908Z" fill="#616164"/>
</g>
</svg>
