<svg width="36" height="54" viewBox="0 0 36 54" fill="none" xmlns="http://www.w3.org/2000/svg">
<g id="Layer_1" clip-path="url(#clip0_436_550)">
<path id="Vector" d="M32.0191 23.3488C31.0531 23.3488 30.1746 23.7282 29.5208 24.3441C29.3603 22.6425 27.9243 21.3058 26.1819 21.3058C25.2596 21.3058 24.422 21.6794 23.8149 22.2864C23.3304 20.7746 21.912 19.6743 20.2426 19.6743C19.2415 19.6743 18.3309 20.0712 17.6596 20.7133V12.3019C17.6596 10.1859 15.9376 8.46393 13.8216 8.46393C11.7056 8.46393 9.98367 10.1859 9.98367 12.3019V33.6953C9.0468 32.2184 7.53788 30.19 5.5182 28.5585C4.28655 27.5633 2.54998 27.5545 1.30082 28.5352C0.577009 29.1043 0.121707 29.9215 0.022474 30.835C-0.0767585 31.7427 0.185916 32.6329 0.766718 33.3392C1.98086 34.8189 3.81374 37.5128 5.6583 41.9724C5.87719 42.4686 11.0344 54.0029 19.2998 54.0029C19.4049 54.0029 19.5129 54.0029 19.618 53.9971H20.9751C29.0772 53.9971 35.6703 47.4039 35.6703 39.3019V27C35.6703 24.9891 34.033 23.3517 32.022 23.3517L32.0191 23.3488ZM34.4999 39.299C34.4999 46.7589 28.4322 52.8267 20.9722 52.8267H19.5946C11.9216 53.0952 6.77612 41.6163 6.72942 41.5142C4.83525 36.9349 2.93232 34.1389 1.66857 32.5979C1.29207 32.1367 1.11695 31.5559 1.18408 30.9605C1.24829 30.3593 1.5489 29.8252 2.02172 29.4516C2.84184 28.8066 3.9801 28.8124 4.78563 29.4633C7.67797 31.7982 9.46124 35.0145 9.93989 35.9426C10.0771 36.2053 10.3718 36.3424 10.6608 36.2724C10.9497 36.2023 11.1511 35.9455 11.1511 35.6478V12.3019C11.1511 10.8309 12.3477 9.63137 13.8216 9.63137C15.2955 9.63137 16.4922 10.828 16.4922 12.3019V31.5209C16.4922 31.8419 16.7548 32.1046 17.0759 32.1046C17.3969 32.1046 17.6596 31.8419 17.6596 31.5209V23.4247C17.6596 22.0004 18.8183 20.8417 20.2426 20.8417C21.6668 20.8417 22.8255 22.0004 22.8255 23.4247V31.1765C22.8255 31.4975 23.0882 31.7602 23.4092 31.7602C23.7303 31.7602 23.993 31.4975 23.993 31.1765V24.6622C23.993 23.4539 24.9736 22.4732 26.1819 22.4732C27.3902 22.4732 28.3709 23.4539 28.3709 24.6622V31.1765C28.3709 31.4975 28.6335 31.7602 28.9546 31.7602C29.2756 31.7602 29.5383 31.4975 29.5383 31.1765V26.9971C29.5383 25.6282 30.6503 24.5162 32.0191 24.5162C33.3879 24.5162 34.4999 25.6282 34.4999 26.9971V39.299Z" fill="white"/>
<path id="Vector_2" d="M6.51813 21.2504C6.62028 21.3204 6.73703 21.3554 6.85085 21.3554C7.03472 21.3554 7.21568 21.2679 7.3295 21.1073C7.51338 20.8417 7.44917 20.4798 7.18649 20.2931C4.37004 18.3259 2.68893 15.1038 2.68893 11.6715C2.68893 5.88099 7.40247 1.16744 13.1959 1.16744C18.9893 1.16744 23.7029 5.88099 23.7029 11.6744C23.7029 13.195 23.3847 14.6631 22.7572 16.0348C22.623 16.3267 22.7514 16.674 23.0462 16.8082C23.338 16.9425 23.6854 16.8141 23.8196 16.5193C24.5172 14.9929 24.8703 13.3643 24.8703 11.6744C24.8703 5.23598 19.6314 0 13.1959 0C6.76038 0 1.52148 5.23598 1.52148 11.6744C1.52148 15.4861 3.38939 19.0672 6.51813 21.2504Z" fill="white"/>
</g>
<defs>
<clipPath id="clip0_436_550">
<rect width="35.6683" height="54" fill="white"/>
</clipPath>
</defs>
</svg>
