<svg width="22" height="22" viewBox="0 0 22 22" fill="none" xmlns="http://www.w3.org/2000/svg">
<g id="_&#195;&#131;&#226;&#128;&#152;&#195;&#131;&#194;&#171;&#195;&#131;&#194;&#174;&#195;&#131;&#194;&#169;_1" clip-path="url(#clip0_443_657)">
<path id="Vector" d="M15.243 21.15H5.90696C2.65134 21.15 0 18.5015 0 15.243V5.90696C0 2.64845 2.64845 0 5.90696 0H15.2459C18.5015 0 21.1529 2.64845 21.1529 5.90696V15.2459C21.1529 18.5015 18.5044 21.1529 15.2459 21.1529L15.243 21.15ZM5.90696 1.71166C3.59391 1.71166 1.71455 3.59391 1.71455 5.90407V15.243C1.71455 17.5561 3.5968 19.4354 5.90696 19.4354H15.2459C17.559 19.4354 19.4383 17.5532 19.4383 15.243V5.90696C19.4383 3.59391 17.5561 1.71455 15.2459 1.71455H5.90696V1.71166Z" fill="white"/>
<path id="Vector_2" d="M10.5765 16.1394C7.50884 16.1394 5.01074 13.6442 5.01074 10.5736C5.01074 7.50302 7.50595 5.00781 10.5765 5.00781C13.6471 5.00781 16.1423 7.50302 16.1423 10.5736C16.1423 13.6442 13.6471 16.1394 10.5765 16.1394ZM10.5765 6.72236C8.45141 6.72236 6.72529 8.45137 6.72529 10.5736C6.72529 12.6958 8.4543 14.4248 10.5765 14.4248C12.7017 14.4248 14.4278 12.6958 14.4278 10.5736C14.4278 8.45137 12.6988 6.72236 10.5765 6.72236Z" fill="white"/>
<path id="Vector_3" d="M16.3733 5.64397C15.8962 5.64397 15.5059 5.25653 15.5059 4.77658C15.5059 4.29662 15.8933 3.90918 16.3733 3.90918C16.8532 3.90918 17.2407 4.29662 17.2407 4.77658C17.2407 5.25653 16.8532 5.64397 16.3733 5.64397Z" fill="url(#paint0_radial_443_657)"/>
</g>
<defs>
<radialGradient id="paint0_radial_443_657" cx="0" cy="0" r="1" gradientUnits="userSpaceOnUse" gradientTransform="translate(10.2061 20.9333) scale(21.3206)">
<stop stop-color="#FEDB6D"/>
<stop offset="0.31" stop-color="#FF4740"/>
<stop offset="0.64" stop-color="#E738AF"/>
<stop offset="0.69" stop-color="#D93AB3"/>
<stop offset="0.79" stop-color="#B440C0"/>
<stop offset="0.92" stop-color="#7949D5"/>
<stop offset="1" stop-color="#5550E2"/>
</radialGradient>
<clipPath id="clip0_443_657">
<rect width="21.15" height="21.15" fill="white"/>
</clipPath>
</defs>
</svg>
