<svg width="152" height="24" viewBox="0 0 152 24" fill="none" xmlns="http://www.w3.org/2000/svg">
<g id="Layer_1" clip-path="url(#clip0_423_6120)">
<path id="Vector" d="M29.456 23.322V22.1856C29.3575 22.2843 29.1896 22.3866 28.9561 22.5547C28.5547 22.8214 26.9199 23.4901 25.3507 23.4901C23.2817 23.4901 21.5447 22.7885 20.1434 21.3854C18.7421 19.9495 18.0415 18.2431 18.0415 16.2079C18.0415 14.1727 18.7421 12.4993 20.1434 11.0633C21.5775 9.62732 23.3145 8.92578 25.3507 8.92578C27.387 8.92578 29.0546 9.59444 30.4887 10.8989C31.9228 12.2033 32.6563 14.0083 32.6563 16.3139V23.3293H29.4524L29.456 23.322ZM25.3507 20.4135C27.6533 20.4135 29.456 18.6414 29.456 16.2043C29.456 13.7671 27.719 11.995 25.3507 11.995C22.9824 11.995 21.2455 13.8 21.2455 16.2043C21.2455 18.6085 23.0481 20.4135 25.3507 20.4135Z" fill="white"/>
<path id="Vector_2" d="M11.4143 10.3654V1.07733L14.6182 3.61311V16.2482C14.6182 18.5537 13.8848 20.3587 12.4506 21.6595C11.0165 22.9639 9.27954 23.6326 7.31265 23.6326C5.34576 23.6326 3.54309 22.9311 2.10532 21.4951C0.704053 20.0591 0.00341797 18.3528 0.00341797 16.3505C0.00341797 14.3481 0.704053 12.6089 2.10532 11.2058C3.5066 9.76986 5.24359 9.06832 7.31265 9.06832C8.88178 9.06832 10.3487 9.60179 10.9837 10.0366L11.4179 10.3727L11.4143 10.3654ZM7.309 20.5561C9.6773 20.5561 11.4143 18.751 11.4143 16.3468C11.4143 13.9426 9.61161 12.1376 7.309 12.1376C5.00639 12.1376 3.20372 13.9097 3.20372 16.3468C3.20372 18.7839 5.00639 20.5561 7.309 20.5561Z" fill="white"/>
<path id="Vector_3" d="M69.9575 0.814331L71.2238 3.88723H68.8664C67.3301 3.88723 66.5638 4.75685 66.5638 6.52897V8.96975H69.9575L71.2238 12.0426H66.5638V23.2015H63.3599V6.56185C63.3599 2.45126 65.6296 0.814331 68.8664 0.814331H69.9575Z" fill="white"/>
<path id="Vector_4" d="M104.387 3.3354V9.75523C105.321 9.11946 106.391 8.78696 107.558 8.78696C109.128 8.78696 110.496 9.35331 111.598 10.5262C112.733 11.6625 113.299 13.3324 113.299 15.5064V23.1905H110.095V15.5064C110.095 13.1022 108.96 11.8635 107.226 11.8635C105.493 11.8635 104.391 13.0656 104.391 15.5064V23.1905H101.187V0.799622L104.391 3.3354H104.387Z" fill="white"/>
<path id="Vector_5" d="M116.327 3.3098C117.094 2.54249 118.363 2.54249 119.13 3.3098C119.896 4.07711 119.896 5.34865 119.13 6.11596C118.363 6.88327 117.094 6.88327 116.327 6.11596C115.561 5.34865 115.561 4.07711 116.327 3.3098ZM116.126 23.3256V9.09386L119.33 11.6296V23.3293H116.126V23.3256Z" fill="white"/>
<path id="Vector_6" d="M54.1864 23.5486L49.4461 16.6318V23.5486H46.2422V1.15771L49.4461 3.69349V15.4589L53.7193 9.30948H57.4888L52.8179 16.091L57.9924 23.5413H54.1864V23.5486Z" fill="white"/>
<path id="Vector_7" d="M143.032 22.9456H139.828V15.2616C139.828 12.9889 140.43 11.3191 141.598 10.2156C142.799 9.11212 144.233 8.54578 145.871 8.54578C147.51 8.54578 148.94 9.11212 150.144 10.2156C151.345 11.3191 151.947 13.0218 151.947 15.2616V22.9456H148.743V15.2616C148.743 12.8902 147.608 11.6187 145.875 11.6187C144.141 11.6187 143.039 12.8537 143.039 15.2616V22.9456H143.032Z" fill="white"/>
<path id="Vector_8" d="M124.724 11.2021C126.158 9.76618 127.862 9.06464 129.895 9.06464C131.928 9.06464 133.599 9.76618 135.033 11.2021C136.467 12.6381 137.168 14.3445 137.168 16.3468C137.168 18.3491 136.467 20.0883 135.033 21.5243C133.599 22.9274 131.895 23.6289 129.895 23.6289C127.895 23.6289 126.158 22.9274 124.724 21.5243C123.29 20.0883 122.589 18.382 122.589 16.3468C122.589 14.3116 123.29 12.6381 124.724 11.2021ZM125.793 16.3468C125.793 17.5818 126.195 18.5866 126.961 19.3868C127.76 20.1541 128.731 20.556 129.899 20.556C131.066 20.556 132.033 20.1541 132.803 19.3868C133.602 18.5829 134.004 17.5818 134.004 16.3468C134.004 15.1118 133.602 14.107 132.803 13.3397C132.037 12.5395 131.066 12.1375 129.899 12.1375C128.731 12.1375 127.764 12.5395 126.961 13.3397C126.195 14.107 125.793 15.1118 125.793 16.3468Z" fill="white"/>
<path id="Vector_9" d="M39.5603 23.322H36.3892V14.8341C36.3892 10.7235 38.6918 9.08655 41.7972 9.08655H42.5635V12.1594H41.9614C40.3594 12.1594 39.5603 13.0619 39.5603 14.8341V23.322Z" fill="white"/>
<path id="Vector_10" d="M94.0273 23.6289C92.6917 23.6289 91.2247 23.227 90.557 22.8616L90.057 22.5949V19.4891C91.2247 20.1906 92.5275 20.5597 94.0273 20.5597C95.33 20.5597 95.9613 20.1249 95.9613 19.2224C95.9613 17.0191 89.8892 17.8193 89.8892 13.241C89.8892 10.6687 91.9911 9.06464 94.8958 9.06464C96.2642 9.06464 97.6326 9.43368 98.1654 9.73329L98.5668 9.96714V12.9414C97.5998 12.4079 96.3627 12.1375 94.8958 12.1375C93.6952 12.1375 93.0931 12.5066 93.0931 13.241C93.0931 13.9754 94.0273 14.4102 95.2279 14.845C96.9648 15.3456 99.1981 16.4162 99.1653 19.2224C99.1653 21.9299 97.1291 23.6326 94.0273 23.6326V23.6289Z" fill="white"/>
<path id="Vector_11" d="M83.9922 23.322V22.1856C83.8936 22.2843 83.7258 22.3866 83.4922 22.5547C83.0908 22.8214 81.456 23.4901 79.8869 23.4901C77.8178 23.4901 76.0808 22.7885 74.6795 21.3854C73.2783 19.9495 72.5776 18.2431 72.5776 16.2079C72.5776 14.1727 73.2783 12.4993 74.6795 11.0633C76.1137 9.62732 77.8506 8.92578 79.8869 8.92578C81.9231 8.92578 83.5908 9.59444 85.0249 10.8989C86.459 12.2033 87.1925 14.0083 87.1925 16.3139V23.3293H83.9885L83.9922 23.322ZM79.8869 20.4135C82.1895 20.4135 83.9922 18.6414 83.9922 16.2043C83.9922 13.7671 82.2552 11.995 79.8869 11.995C77.5186 11.995 75.7816 13.8 75.7816 16.2043C75.7816 18.6085 77.5843 20.4135 79.8869 20.4135Z" fill="white"/>
</g>
<defs>
<clipPath id="clip0_423_6120">
<rect width="151.939" height="22.8293" fill="white" transform="translate(0 0.799622)"/>
</clipPath>
</defs>
</svg>
