<svg width="152" height="24" viewBox="0 0 152 24" fill="none" xmlns="http://www.w3.org/2000/svg">
<g id="Layer_1" clip-path="url(#clip0_443_665)">
<path id="Vector" d="M29.4555 23.1193V21.9745C29.357 22.0739 29.1891 22.1769 28.9556 22.3463C28.5542 22.615 26.9194 23.2887 25.3503 23.2887C23.2812 23.2887 21.5442 22.5819 20.1429 21.1683C18.7417 19.7216 18.041 18.0025 18.041 15.9521C18.041 13.9016 18.7417 12.2157 20.1429 10.769C21.577 9.32226 23.314 8.61548 25.3503 8.61548C27.3865 8.61548 29.0541 9.28913 30.4882 10.6033C31.9224 11.9175 32.6558 13.736 32.6558 16.0588V23.1267H29.4519L29.4555 23.1193ZM25.3503 20.1891C27.6529 20.1891 29.4555 18.4037 29.4555 15.9484C29.4555 13.493 27.7185 11.7077 25.3503 11.7077C22.982 11.7077 21.245 13.5262 21.245 15.9484C21.245 18.3706 23.0476 20.1891 25.3503 20.1891Z" fill="white"/>
<path id="Vector_2" d="M11.4148 10.0658V0.708252L14.6187 3.26299V15.9925C14.6187 18.3153 13.8852 20.1338 12.4511 21.4443C11.017 22.7585 9.28003 23.4322 7.31314 23.4322C5.34625 23.4322 3.54358 22.7254 2.10581 21.2787C0.704542 19.832 0.00390625 18.1129 0.00390625 16.0956C0.00390625 14.0783 0.704542 12.326 2.10581 10.9125C3.50708 9.46577 5.24408 8.75899 7.31314 8.75899C8.88227 8.75899 10.3492 9.29644 10.9842 9.7345L11.4184 10.0732L11.4148 10.0658ZM7.30949 20.3326C9.67779 20.3326 11.4148 18.5141 11.4148 16.0919C11.4148 13.6697 9.6121 11.8512 7.30949 11.8512C5.00688 11.8512 3.20421 13.6365 3.20421 16.0919C3.20421 18.5472 5.00688 20.3326 7.30949 20.3326Z" fill="white"/>
<path id="Vector_3" d="M69.958 0.443115L71.2243 3.53899H68.8669C67.3306 3.53899 66.5643 4.41511 66.5643 6.20048V8.6595H69.958L71.2243 11.7554H66.5643V22.9977H63.3604V6.23361C63.3604 2.09228 65.6301 0.443115 68.8669 0.443115H69.958Z" fill="white"/>
<path id="Vector_4" d="M104.388 2.9832V9.45103C105.322 8.81051 106.391 8.47552 107.559 8.47552C109.128 8.47552 110.496 9.04611 111.599 10.2278C112.733 11.3726 113.299 13.0549 113.299 15.2452V22.9867H110.095V15.2452C110.095 12.823 108.96 11.5751 107.227 11.5751C105.493 11.5751 104.391 12.7862 104.391 15.2452V22.9867H101.188V0.428467L104.391 2.9832H104.388Z" fill="white"/>
<path id="Vector_5" d="M116.328 2.95747C117.094 2.18442 118.364 2.18442 119.13 2.95747C119.897 3.73052 119.897 5.01157 119.13 5.78462C118.364 6.55766 117.094 6.55766 116.328 5.78462C115.561 5.01157 115.561 3.73052 116.328 2.95747ZM116.127 23.123V8.78478L119.331 11.3395V23.1266H116.127V23.123Z" fill="white"/>
<path id="Vector_6" d="M54.1864 23.3476L49.4461 16.3791V23.3476H46.2422V0.789307L49.4461 3.34404V15.1974L53.7193 9.00202H57.4888L52.8179 15.8343L57.9924 23.3402H54.1864V23.3476Z" fill="white"/>
<path id="Vector_7" d="M143.032 22.7402H139.828V14.9987C139.828 12.709 140.43 11.0267 141.598 9.91496C142.799 8.80325 144.233 8.23267 145.871 8.23267C147.51 8.23267 148.94 8.80325 150.144 9.91496C151.345 11.0267 151.947 12.7421 151.947 14.9987V22.7402H148.743V14.9987C148.743 12.6096 147.608 11.3285 145.875 11.3285C144.141 11.3285 143.039 12.5728 143.039 14.9987V22.7402H143.032Z" fill="white"/>
<path id="Vector_8" d="M124.724 10.9089C126.158 9.46216 127.862 8.75537 129.894 8.75537C131.927 8.75537 133.598 9.46216 135.032 10.9089C136.467 12.3556 137.167 14.0747 137.167 16.092C137.167 18.1092 136.467 19.8615 135.032 21.3082C133.598 22.7218 131.894 23.4285 129.894 23.4285C127.895 23.4285 126.158 22.7218 124.724 21.3082C123.29 19.8615 122.589 18.1424 122.589 16.092C122.589 14.0415 123.29 12.3556 124.724 10.9089ZM125.793 16.092C125.793 17.3362 126.194 18.3485 126.961 19.1547C127.76 19.9277 128.73 20.3327 129.898 20.3327C131.066 20.3327 132.033 19.9277 132.803 19.1547C133.602 18.3448 134.003 17.3362 134.003 16.092C134.003 14.8477 133.602 13.8354 132.803 13.0623C132.036 12.2562 131.066 11.8512 129.898 11.8512C128.73 11.8512 127.763 12.2562 126.961 13.0623C126.194 13.8354 125.793 14.8477 125.793 16.092Z" fill="white"/>
<path id="Vector_9" d="M39.5608 23.1192H36.3896V14.5678C36.3896 10.4265 38.6923 8.77734 41.7977 8.77734H42.564V11.8732H41.9619C40.3599 11.8732 39.5608 12.7825 39.5608 14.5678V23.1192Z" fill="white"/>
<path id="Vector_10" d="M94.0278 23.4285C92.6922 23.4285 91.2252 23.0236 90.5574 22.6555L90.0575 22.3868V19.2578C91.2252 19.9646 92.528 20.3364 94.0278 20.3364C95.3305 20.3364 95.9618 19.8983 95.9618 18.989C95.9618 16.7693 89.8896 17.5755 89.8896 12.963C89.8896 10.3714 91.9915 8.75537 94.8963 8.75537C96.2647 8.75537 97.6331 9.12717 98.1659 9.42903L98.5673 9.66462V12.6611C97.6003 12.1236 96.3632 11.8512 94.8963 11.8512C93.6957 11.8512 93.0936 12.223 93.0936 12.963C93.0936 13.7029 94.0278 14.1409 95.2283 14.579C96.9653 15.0833 99.1986 16.1619 99.1658 18.989C99.1658 21.7168 97.1296 23.4322 94.0278 23.4322V23.4285Z" fill="white"/>
<path id="Vector_11" d="M83.9926 23.1193V21.9745C83.8941 22.0739 83.7263 22.1769 83.4927 22.3463C83.0913 22.615 81.4565 23.2887 79.8874 23.2887C77.8183 23.2887 76.0813 22.5819 74.68 21.1683C73.2788 19.7216 72.5781 18.0025 72.5781 15.9521C72.5781 13.9016 73.2788 12.2157 74.68 10.769C76.1141 9.32226 77.8511 8.61548 79.8874 8.61548C81.9236 8.61548 83.5912 9.28913 85.0254 10.6033C86.4595 11.9175 87.1929 13.736 87.1929 16.0588V23.1267H83.989L83.9926 23.1193ZM79.8874 20.1891C82.19 20.1891 83.9926 18.4037 83.9926 15.9484C83.9926 13.493 82.2557 11.7077 79.8874 11.7077C77.5191 11.7077 75.7821 13.5262 75.7821 15.9484C75.7821 18.3706 77.5847 20.1891 79.8874 20.1891Z" fill="white"/>
</g>
<defs>
<clipPath id="clip0_443_665">
<rect width="151.939" height="23" fill="white" transform="translate(0 0.428467)"/>
</clipPath>
</defs>
</svg>
