<svg width="20" height="24" viewBox="0 0 20 24" fill="none" xmlns="http://www.w3.org/2000/svg">
<g id="_&#195;&#131;&#226;&#128;&#152;&#195;&#131;&#194;&#171;&#195;&#131;&#194;&#174;&#195;&#131;&#194;&#169;_1" clip-path="url(#clip0_443_661)">
<path id="Vector" d="M10.2004 -0.000264817C8.79233 -0.00929123 7.33908 0.255484 6.04228 0.730874C4.26709 1.38078 2.74162 2.50005 1.61332 4.03153C-0.249127 6.55893 -0.706465 10.356 1.35757 12.9105C1.73668 13.3769 2.91313 14.6225 3.5209 13.8763C3.64727 13.7199 3.70444 13.5213 3.74656 13.3257C3.86992 12.7691 4.0655 12.2426 3.66533 11.7371C1.64341 9.20066 3.211 4.91913 5.90388 3.51101C7.32403 2.76783 8.93675 2.33758 10.5435 2.47297C11.8553 2.58129 13.1491 3.09279 14.145 3.95932C15.2613 4.93116 15.7667 6.29415 15.7667 7.76245C15.7667 8.65606 15.6765 9.51658 15.502 10.3169C14.9032 13.091 13.3356 15.119 11.2355 15.119C9.91461 15.119 8.72312 14.0689 8.93675 12.6879C9.20152 10.9698 11.9787 5.46673 8.31092 5.46673C7.01112 5.46673 6.14458 6.38141 5.80759 7.57289C5.63609 8.17465 5.58494 8.80951 5.61503 9.42933C5.64512 10.0521 5.90087 10.6328 5.94901 11.2316C5.97007 11.4994 5.89184 11.7762 5.82866 12.0319C5.34123 13.9907 4.79363 15.9404 4.35735 17.9081C3.92709 19.8398 3.98125 20.9651 4.4085 22.9178C4.49876 23.327 4.61912 23.3059 4.89593 23.0381C5.36831 22.5778 5.73538 21.964 6.07839 21.4044C6.54475 20.6431 6.9359 19.8338 7.24279 18.9943C7.73022 17.6644 7.69712 17.1469 8.05517 15.7779C8.55162 16.6956 10.0049 17.5019 11.5484 17.5019C13.2724 17.5019 14.9423 16.8882 16.2331 15.7418C17.6081 14.5202 18.4747 12.7691 18.923 10.9999C19.7384 7.78953 19.0945 4.46781 16.5099 2.27138C14.7678 0.791051 12.4811 0.0147792 10.2004 -0.000264817Z" fill="white"/>
</g>
<defs>
<clipPath id="clip0_443_661">
<rect width="19.2563" height="23.24" fill="white"/>
</clipPath>
</defs>
</svg>
