<?xml version="1.0" encoding="iso-8859-1"?>
<!-- Uploaded to: SVG Repo, www.svgrepo.com, Generator: SVG Repo Mixer Tools -->
<svg height="800px" width="800px" version="1.1" id="Layer_1" xmlns="http://www.w3.org/2000/svg" xmlns:xlink="http://www.w3.org/1999/xlink" 
	 viewBox="0 0 511.998 511.998" xml:space="preserve">
<circle cx="15.577" cy="157.048" r="9.371"/>
<circle cx="15.577" cy="255.996" r="9.371"/>
<circle cx="357.528" cy="255.996" r="9.371"/>
<circle cx="156.485" cy="255.996" r="9.371"/>
<g>
	<circle style="fill:#F1709F;" cx="254.47" cy="255.996" r="165.283"/>
	<circle style="fill:#F1709F;" cx="255.982" cy="255.908" r="110.268"/>
</g>
<circle style="fill:#42A555;" cx="255.982" cy="77.506" r="68.135"/>
<circle style="fill:#FFDB6C;" cx="382.555" cy="129.347" r="68.506"/>
<circle style="fill:#42A555;" cx="434.384" cy="255.908" r="68.135"/>
<circle style="fill:#FFDB6C;" cx="129.446" cy="129.347" r="68.506"/>
<circle style="fill:#42A555;" cx="256.019" cy="434.498" r="68.135"/>
<g>
	<circle style="fill:#FFDB6C;" cx="129.446" cy="382.656" r="68.506"/>
	<circle style="fill:#FFDB6C;" cx="382.555" cy="382.656" r="68.506"/>
</g>
<circle style="fill:#42A555;" cx="77.617" cy="255.908" r="68.135"/>
<path style="fill:#FFDB6C;" d="M96.334,191.874L96.334,191.874c1.085-1.586,3.565-0.778,3.512,1.143l0,0
	c-0.444,16.066,15.36,27.568,30.479,22.18l0,0c1.808-0.645,3.341,1.469,2.17,2.993l0,0c-9.787,12.736-3.751,31.346,11.641,35.888
	l0,0c1.842,0.544,1.842,3.156,0,3.699l0,0c-15.392,4.542-21.429,23.151-11.641,35.888l0,0c1.171,1.523-0.362,3.637-2.17,2.993l0,0
	c-15.118-5.388-30.922,6.114-30.479,22.18l0,0c0.054,1.922-2.428,2.729-3.512,1.143l0,0c-9.069-13.26-28.605-13.26-37.673,0l0,0
	c-1.085,1.586-3.565,0.778-3.512-1.143l0,0c0.444-16.066-15.36-27.568-30.479-22.18l0,0c-1.808,0.645-3.341-1.469-2.17-2.993l0,0
	c9.787-12.736,3.751-31.346-11.642-35.888l0,0c-1.842-0.544-1.842-3.156,0-3.698l0,0c15.392-4.542,21.429-23.152,11.642-35.888l0,0
	c-1.171-1.523,0.362-3.637,2.17-2.993l0,0c15.118,5.388,30.922-6.114,30.479-22.18l0,0c-0.052-1.922,2.428-2.729,3.512-1.143l0,0
	C67.73,205.134,87.264,205.134,96.334,191.874z"/>
<g>
	<ellipse style="fill:#F1709F;" cx="42.856" cy="230.369" rx="4.646" ry="4.653"/>
	<ellipse style="fill:#F1709F;" cx="63.96" cy="214.038" rx="4.646" ry="4.653"/>
	<ellipse style="fill:#F1709F;" cx="90.979" cy="213.475" rx="4.646" ry="4.653"/>
	<ellipse style="fill:#F1709F;" cx="113.428" cy="229.506" rx="4.646" ry="4.653"/>
	<ellipse style="fill:#F1709F;" cx="112.415" cy="282.422" rx="4.646" ry="4.653"/>
	<ellipse style="fill:#F1709F;" cx="90.979" cy="297.891" rx="4.646" ry="4.653"/>
	<ellipse style="fill:#F1709F;" cx="63.96" cy="298.453" rx="4.646" ry="4.653"/>
	<ellipse style="fill:#F1709F;" cx="42.856" cy="282.422" rx="4.646" ry="4.653"/>
	<ellipse style="fill:#F1709F;" cx="121.712" cy="255.921" rx="4.646" ry="4.653"/>
	<ellipse style="fill:#F1709F;" cx="33.594" cy="255.921" rx="4.646" ry="4.653"/>
	<ellipse style="fill:#F1709F;" cx="77.109" cy="256.258" rx="27.049" ry="27.093"/>
</g>
<ellipse style="fill:#FFFFFF;" cx="77.109" cy="256.258" rx="11.472" ry="11.489"/>
<path style="fill:#FFDB6C;" d="M274.835,13.453L274.835,13.453c1.085-1.586,3.565-0.778,3.512,1.143l0,0
	c-0.444,16.066,15.36,27.568,30.479,22.18l0,0c1.808-0.645,3.341,1.469,2.17,2.993l0,0c-9.787,12.736-3.751,31.346,11.642,35.888
	l0,0c1.842,0.544,1.842,3.156,0,3.698l0,0c-15.392,4.542-21.429,23.151-11.642,35.888l0,0c1.171,1.523-0.362,3.637-2.17,2.993l0,0
	c-15.118-5.388-30.922,6.114-30.479,22.18l0,0c0.052,1.922-2.428,2.729-3.512,1.143l0,0c-9.069-13.26-28.605-13.26-37.673,0l0,0
	c-1.085,1.586-3.565,0.778-3.512-1.143l0,0c0.444-16.066-15.36-27.568-30.479-22.18l0,0c-1.808,0.645-3.341-1.469-2.17-2.993l0,0
	c9.787-12.736,3.751-31.346-11.642-35.888l0,0c-1.842-0.544-1.842-3.156,0-3.698l0,0c15.392-4.542,21.429-23.151,11.642-35.888l0,0
	c-1.171-1.523,0.362-3.637,2.17-2.993l0,0c15.118,5.388,30.922-6.114,30.479-22.18l0,0c-0.052-1.922,2.428-2.729,3.512-1.143l0,0
	C246.231,26.712,265.767,26.712,274.835,13.453z"/>
<g>
	<ellipse style="fill:#F1709F;" cx="221.359" cy="51.948" rx="4.646" ry="4.653"/>
	<ellipse style="fill:#F1709F;" cx="242.462" cy="35.612" rx="4.646" ry="4.653"/>
	<ellipse style="fill:#F1709F;" cx="269.476" cy="35.048" rx="4.646" ry="4.653"/>
	<ellipse style="fill:#F1709F;" cx="291.917" cy="51.083" rx="4.646" ry="4.653"/>
	<ellipse style="fill:#F1709F;" cx="290.918" cy="103.995" rx="4.646" ry="4.653"/>
	<ellipse style="fill:#F1709F;" cx="269.476" cy="119.476" rx="4.646" ry="4.653"/>
	<ellipse style="fill:#F1709F;" cx="242.462" cy="120.039" rx="4.646" ry="4.653"/>
	<ellipse style="fill:#F1709F;" cx="221.359" cy="103.995" rx="4.646" ry="4.653"/>
	<ellipse style="fill:#F1709F;" cx="300.201" cy="77.506" rx="4.646" ry="4.653"/>
	<ellipse style="fill:#F1709F;" cx="212.1" cy="77.506" rx="4.646" ry="4.653"/>
	<ellipse style="fill:#F1709F;" cx="255.607" cy="77.831" rx="27.049" ry="27.093"/>
</g>
<ellipse style="fill:#FFFFFF;" cx="255.607" cy="77.831" rx="11.472" ry="11.489"/>
<path style="fill:#FFDB6C;" d="M453.109,191.941L453.109,191.941c1.085-1.586,3.565-0.778,3.512,1.143l0,0
	c-0.444,16.066,15.36,27.568,30.479,22.18l0,0c1.808-0.645,3.341,1.469,2.17,2.993l0,0c-9.787,12.736-3.751,31.346,11.641,35.888
	l0,0c1.842,0.544,1.842,3.156,0,3.699l0,0c-15.392,4.542-21.429,23.151-11.641,35.888l0,0c1.171,1.523-0.362,3.637-2.17,2.993l0,0
	c-15.118-5.388-30.922,6.114-30.479,22.18l0,0c0.054,1.922-2.428,2.729-3.512,1.143l0,0c-9.069-13.26-28.605-13.26-37.673,0l0,0
	c-1.085,1.586-3.565,0.778-3.512-1.143l0,0c0.444-16.066-15.36-27.568-30.479-22.18l0,0c-1.808,0.645-3.341-1.469-2.17-2.993l0,0
	c9.787-12.736,3.751-31.346-11.641-35.888l0,0c-1.842-0.544-1.842-3.156,0-3.699l0,0c15.392-4.542,21.429-23.151,11.641-35.888l0,0
	c-1.171-1.523,0.362-3.637,2.17-2.993l0,0c15.118,5.388,30.922-6.114,30.479-22.18l0,0c-0.054-1.922,2.428-2.729,3.512-1.143l0,0
	C424.506,205.2,444.04,205.2,453.109,191.941z"/>
<g>
	<ellipse style="fill:#F1709F;" cx="399.636" cy="230.431" rx="4.646" ry="4.653"/>
	<ellipse style="fill:#F1709F;" cx="420.727" cy="214.1" rx="4.646" ry="4.653"/>
	<ellipse style="fill:#F1709F;" cx="447.754" cy="213.538" rx="4.646" ry="4.653"/>
	<ellipse style="fill:#F1709F;" cx="470.195" cy="229.569" rx="4.646" ry="4.653"/>
	<ellipse style="fill:#F1709F;" cx="469.195" cy="282.485" rx="4.646" ry="4.653"/>
	<ellipse style="fill:#F1709F;" cx="447.754" cy="297.966" rx="4.646" ry="4.653"/>
	<ellipse style="fill:#F1709F;" cx="420.727" cy="298.516" rx="4.646" ry="4.653"/>
	<ellipse style="fill:#F1709F;" cx="399.636" cy="282.485" rx="4.646" ry="4.653"/>
	<ellipse style="fill:#F1709F;" cx="478.479" cy="255.996" rx="4.646" ry="4.653"/>
	<ellipse style="fill:#F1709F;" cx="390.365" cy="255.996" rx="4.646" ry="4.653"/>
	<ellipse style="fill:#F1709F;" cx="433.884" cy="256.32" rx="27.049" ry="27.093"/>
</g>
<ellipse style="fill:#FFFFFF;" cx="433.884" cy="256.32" rx="11.472" ry="11.489"/>
<path style="fill:#FFDB6C;" d="M274.854,370.441L274.854,370.441c1.085-1.586,3.565-0.778,3.512,1.143l0,0
	c-0.444,16.066,15.36,27.568,30.479,22.18l0,0c1.808-0.645,3.341,1.469,2.17,2.993l0,0c-9.787,12.737-3.751,31.346,11.641,35.888
	l0,0c1.842,0.544,1.842,3.156,0,3.698l0,0c-15.392,4.542-21.429,23.151-11.641,35.888l0,0c1.171,1.523-0.362,3.637-2.17,2.993l0,0
	c-15.118-5.388-30.922,6.114-30.479,22.18l0,0c0.052,1.922-2.428,2.729-3.512,1.143l0,0c-9.069-13.26-28.605-13.26-37.673,0l0,0
	c-1.085,1.586-3.565,0.778-3.512-1.143l0,0c0.444-16.066-15.36-27.568-30.479-22.18l0,0c-1.808,0.645-3.341-1.469-2.17-2.993l0,0
	c9.787-12.737,3.751-31.346-11.642-35.888l0,0c-1.842-0.544-1.842-3.156,0-3.698l0,0c15.392-4.542,21.429-23.151,11.642-35.888l0,0
	c-1.171-1.523,0.362-3.637,2.17-2.993l0,0c15.118,5.388,30.922-6.114,30.479-22.18l0,0c-0.052-1.922,2.428-2.729,3.512-1.143l0,0
	C246.25,383.701,265.784,383.701,274.854,370.441z"/>
<g>
	<ellipse style="fill:#F1709F;" cx="221.383" cy="408.933" rx="4.646" ry="4.653"/>
	<ellipse style="fill:#F1709F;" cx="242.475" cy="392.602" rx="4.646" ry="4.653"/>
	<ellipse style="fill:#F1709F;" cx="269.501" cy="392.04" rx="4.646" ry="4.653"/>
	<ellipse style="fill:#F1709F;" cx="291.942" cy="408.071" rx="4.646" ry="4.653"/>
	<ellipse style="fill:#F1709F;" cx="290.93" cy="460.987" rx="4.646" ry="4.653"/>
	<ellipse style="fill:#F1709F;" cx="269.501" cy="476.456" rx="4.646" ry="4.653"/>
	<ellipse style="fill:#F1709F;" cx="242.475" cy="477.018" rx="4.646" ry="4.653"/>
	<ellipse style="fill:#F1709F;" cx="221.383" cy="460.987" rx="4.646" ry="4.653"/>
	<ellipse style="fill:#F1709F;" cx="300.226" cy="434.498" rx="4.646" ry="4.653"/>
	<ellipse style="fill:#F1709F;" cx="212.112" cy="434.498" rx="4.646" ry="4.653"/>
	<ellipse style="fill:#F1709F;" cx="255.632" cy="434.823" rx="27.049" ry="27.093"/>
</g>
<ellipse style="fill:#FFFFFF;" cx="255.632" cy="434.823" rx="11.472" ry="11.489"/>
<path style="fill:#42A555;" d="M148.413,64.916L148.413,64.916c1.092-1.598,3.591-0.785,3.537,1.151l0,0
	c-0.447,16.181,15.47,27.764,30.695,22.338l0,0c1.822-0.648,3.365,1.479,2.187,3.014l0,0c-9.857,12.827-3.777,31.57,11.725,36.144
	l0,0c1.854,0.547,1.854,3.179,0,3.726l0,0c-15.502,4.574-21.581,23.315-11.725,36.144l0,0c1.18,1.534-0.365,3.664-2.187,3.014l0,0
	c-15.226-5.427-31.142,6.157-30.695,22.338l0,0c0.054,1.935-2.445,2.749-3.537,1.151l0,0c-9.134-13.353-28.808-13.353-37.942,0l0,0
	c-1.092,1.597-3.591,0.785-3.537-1.151l0,0c0.447-16.181-15.47-27.764-30.695-22.338l0,0c-1.822,0.648-3.365-1.479-2.187-3.014l0,0
	c9.857-12.827,3.777-31.57-11.725-36.144l0,0c-1.854-0.547-1.854-3.179,0-3.726l0,0c15.502-4.574,21.581-23.315,11.725-36.144l0,0
	c-1.18-1.534,0.365-3.664,2.187-3.014l0,0c15.226,5.427,31.142-6.157,30.695-22.338l0,0c-0.054-1.935,2.445-2.749,3.537-1.151l0,0
	C119.605,78.271,139.279,78.271,148.413,64.916z"/>
<g>
	<ellipse style="fill:#FFDB6C;" cx="94.56" cy="103.685" rx="4.679" ry="4.687"/>
	<ellipse style="fill:#FFDB6C;" cx="115.802" cy="87.233" rx="4.679" ry="4.687"/>
	<ellipse style="fill:#FFDB6C;" cx="143.015" cy="86.665" rx="4.679" ry="4.687"/>
	<ellipse style="fill:#FFDB6C;" cx="165.619" cy="102.808" rx="4.679" ry="4.687"/>
	<ellipse style="fill:#FFDB6C;" cx="164.607" cy="156.111" rx="4.679" ry="4.687"/>
	<ellipse style="fill:#FFDB6C;" cx="143.015" cy="171.693" rx="4.679" ry="4.687"/>
	<ellipse style="fill:#FFDB6C;" cx="115.802" cy="172.255" rx="4.679" ry="4.687"/>
	<ellipse style="fill:#FFDB6C;" cx="94.56" cy="156.111" rx="4.679" ry="4.687"/>
	<ellipse style="fill:#FFDB6C;" cx="173.965" cy="129.422" rx="4.679" ry="4.687"/>
	<ellipse style="fill:#FFDB6C;" cx="85.227" cy="129.422" rx="4.679" ry="4.687"/>
	<ellipse style="fill:#FFDB6C;" cx="129.046" cy="129.76" rx="27.241" ry="27.286"/>
</g>
<ellipse style="fill:#FFFFFF;" cx="129.046" cy="129.76" rx="11.553" ry="11.572"/>
<path style="fill:#42A555;" d="M401.526,64.916L401.526,64.916c1.092-1.597,3.591-0.785,3.537,1.151l0,0
	c-0.447,16.181,15.47,27.764,30.695,22.338l0,0c1.822-0.648,3.365,1.479,2.187,3.014l0,0c-9.857,12.827-3.777,31.57,11.725,36.144
	l0,0c1.854,0.547,1.854,3.179,0,3.726l0,0c-15.502,4.574-21.581,23.315-11.725,36.144l0,0c1.18,1.534-0.365,3.664-2.187,3.014l0,0
	c-15.226-5.427-31.142,6.157-30.695,22.338l0,0c0.054,1.935-2.445,2.749-3.537,1.151l0,0c-9.134-13.353-28.808-13.353-37.942,0l0,0
	c-1.092,1.597-3.591,0.785-3.537-1.151l0,0c0.447-16.181-15.47-27.764-30.695-22.338l0,0c-1.822,0.648-3.365-1.479-2.187-3.014l0,0
	c9.857-12.827,3.777-31.57-11.725-36.144l0,0c-1.854-0.547-1.854-3.179,0-3.726l0,0c15.502-4.574,21.581-23.315,11.725-36.144l0,0
	c-1.18-1.534,0.365-3.664,2.187-3.014l0,0c15.226,5.427,31.142-6.157,30.695-22.338l0,0c-0.054-1.935,2.445-2.749,3.537-1.151l0,0
	C372.718,78.271,392.393,78.271,401.526,64.916z"/>
<g>
	<ellipse style="fill:#FFDB6C;" cx="347.67" cy="103.685" rx="4.679" ry="4.687"/>
	<ellipse style="fill:#FFDB6C;" cx="368.911" cy="87.233" rx="4.679" ry="4.687"/>
	<ellipse style="fill:#FFDB6C;" cx="396.137" cy="86.665" rx="4.679" ry="4.687"/>
	<ellipse style="fill:#FFDB6C;" cx="418.741" cy="102.808" rx="4.679" ry="4.687"/>
	<ellipse style="fill:#FFDB6C;" cx="417.716" cy="156.111" rx="4.679" ry="4.687"/>
	<ellipse style="fill:#FFDB6C;" cx="396.137" cy="171.693" rx="4.679" ry="4.687"/>
	<ellipse style="fill:#FFDB6C;" cx="368.911" cy="172.255" rx="4.679" ry="4.687"/>
	<ellipse style="fill:#FFDB6C;" cx="347.67" cy="156.111" rx="4.679" ry="4.687"/>
	<ellipse style="fill:#FFDB6C;" cx="427.075" cy="129.422" rx="4.679" ry="4.687"/>
	<ellipse style="fill:#FFDB6C;" cx="338.336" cy="129.422" rx="4.679" ry="4.687"/>
	<ellipse style="fill:#FFDB6C;" cx="382.168" cy="129.76" rx="27.241" ry="27.286"/>
</g>
<ellipse style="fill:#FFFFFF;" cx="382.168" cy="129.76" rx="11.553" ry="11.572"/>
<path style="fill:#42A555;" d="M148.413,318.14L148.413,318.14c1.092-1.598,3.591-0.785,3.537,1.151l0,0
	c-0.447,16.181,15.47,27.764,30.695,22.338l0,0c1.822-0.65,3.365,1.479,2.187,3.014l0,0c-9.857,12.827-3.777,31.57,11.725,36.144
	l0,0c1.854,0.547,1.854,3.179,0,3.726l0,0c-15.502,4.574-21.581,23.315-11.725,36.144l0,0c1.18,1.534-0.365,3.664-2.187,3.014l0,0
	c-15.226-5.427-31.142,6.158-30.695,22.338l0,0c0.054,1.935-2.445,2.749-3.537,1.151l0,0c-9.134-13.353-28.808-13.353-37.942,0l0,0
	c-1.092,1.597-3.591,0.785-3.537-1.151l0,0c0.447-16.181-15.47-27.764-30.695-22.338l0,0c-1.822,0.648-3.365-1.479-2.187-3.014l0,0
	c9.857-12.827,3.777-31.57-11.725-36.144l0,0c-1.854-0.547-1.854-3.179,0-3.726l0,0c15.502-4.574,21.581-23.315,11.725-36.144l0,0
	c-1.18-1.534,0.365-3.664,2.187-3.014l0,0c15.226,5.427,31.142-6.158,30.695-22.338l0,0c-0.054-1.935,2.445-2.749,3.537-1.151l0,0
	C119.605,331.495,139.279,331.495,148.413,318.14z"/>
<g>
	<ellipse style="fill:#FFDB6C;" cx="94.56" cy="356.905" rx="4.679" ry="4.687"/>
	<ellipse style="fill:#FFDB6C;" cx="115.802" cy="340.461" rx="4.679" ry="4.687"/>
	<ellipse style="fill:#FFDB6C;" cx="143.015" cy="339.886" rx="4.679" ry="4.687"/>
	<ellipse style="fill:#FFDB6C;" cx="165.619" cy="356.042" rx="4.679" ry="4.687"/>
	<ellipse style="fill:#FFDB6C;" cx="164.607" cy="409.333" rx="4.679" ry="4.687"/>
	<ellipse style="fill:#FFDB6C;" cx="143.015" cy="424.914" rx="4.679" ry="4.687"/>
	<ellipse style="fill:#FFDB6C;" cx="115.802" cy="425.477" rx="4.679" ry="4.687"/>
	<ellipse style="fill:#FFDB6C;" cx="94.56" cy="409.333" rx="4.679" ry="4.687"/>
	<ellipse style="fill:#FFDB6C;" cx="173.965" cy="382.656" rx="4.679" ry="4.687"/>
	<ellipse style="fill:#FFDB6C;" cx="85.227" cy="382.656" rx="4.679" ry="4.687"/>
	<ellipse style="fill:#FFDB6C;" cx="129.046" cy="382.981" rx="27.241" ry="27.286"/>
</g>
<ellipse style="fill:#FFFFFF;" cx="129.046" cy="382.981" rx="11.553" ry="11.572"/>
<path style="fill:#42A555;" d="M401.526,318.14L401.526,318.14c1.092-1.598,3.591-0.785,3.537,1.151l0,0
	c-0.447,16.181,15.47,27.764,30.695,22.338l0,0c1.822-0.65,3.365,1.479,2.187,3.014l0,0c-9.857,12.827-3.777,31.57,11.725,36.144
	l0,0c1.854,0.547,1.854,3.179,0,3.726l0,0c-15.502,4.574-21.581,23.315-11.725,36.144l0,0c1.18,1.534-0.365,3.664-2.187,3.014l0,0
	c-15.226-5.427-31.142,6.158-30.695,22.338l0,0c0.054,1.935-2.445,2.749-3.537,1.151l0,0c-9.134-13.353-28.808-13.353-37.942,0l0,0
	c-1.092,1.597-3.591,0.785-3.537-1.151l0,0c0.447-16.181-15.47-27.764-30.695-22.338l0,0c-1.822,0.648-3.365-1.479-2.187-3.014l0,0
	c9.857-12.827,3.777-31.57-11.725-36.144l0,0c-1.854-0.547-1.854-3.179,0-3.726l0,0c15.502-4.574,21.581-23.315,11.725-36.144l0,0
	c-1.18-1.534,0.365-3.664,2.187-3.014l0,0c15.226,5.427,31.142-6.158,30.695-22.338l0,0c-0.054-1.935,2.445-2.749,3.537-1.151l0,0
	C372.718,331.495,392.393,331.495,401.526,318.14z"/>
<g>
	<ellipse style="fill:#FFDB6C;" cx="347.67" cy="356.905" rx="4.679" ry="4.687"/>
	<ellipse style="fill:#FFDB6C;" cx="368.911" cy="340.461" rx="4.679" ry="4.687"/>
	<ellipse style="fill:#FFDB6C;" cx="396.137" cy="339.886" rx="4.679" ry="4.687"/>
	<ellipse style="fill:#FFDB6C;" cx="418.741" cy="356.042" rx="4.679" ry="4.687"/>
	<ellipse style="fill:#FFDB6C;" cx="417.716" cy="409.333" rx="4.679" ry="4.687"/>
	<ellipse style="fill:#FFDB6C;" cx="396.137" cy="424.914" rx="4.679" ry="4.687"/>
	<ellipse style="fill:#FFDB6C;" cx="368.911" cy="425.477" rx="4.679" ry="4.687"/>
	<ellipse style="fill:#FFDB6C;" cx="347.67" cy="409.333" rx="4.679" ry="4.687"/>
	<ellipse style="fill:#FFDB6C;" cx="427.075" cy="382.656" rx="4.679" ry="4.687"/>
	<ellipse style="fill:#FFDB6C;" cx="338.336" cy="382.656" rx="4.679" ry="4.687"/>
	<ellipse style="fill:#FFDB6C;" cx="382.168" cy="382.981" rx="27.241" ry="27.286"/>
</g>
<ellipse style="fill:#FFFFFF;" cx="382.168" cy="382.981" rx="11.553" ry="11.572"/>
<path d="M511.893,255.912c0-39.951-30.386-72.93-69.259-77.062c11.114-13.466,17.799-30.716,17.799-49.499
	c0-42.941-34.934-77.877-77.877-77.877c-18.787,0-36.043,6.687-49.51,17.806C328.923,30.396,295.938,0,255.979,0
	c-39.949,0-72.928,30.383-77.061,69.253c-13.462-11.103-30.704-17.78-49.476-17.78c-42.941,0-77.877,34.936-77.877,77.877
	c0,18.782,6.685,36.034,17.799,49.499c-38.873,4.131-69.259,37.111-69.259,77.062c0,39.997,30.458,73.013,69.397,77.08
	c-11.194,13.49-17.935,30.8-17.935,49.659c0,42.941,34.935,77.876,77.877,77.876c18.787,0,36.043-6.687,49.51-17.807
	c4.121,38.883,37.107,69.279,77.065,69.279c39.949,0,72.928-30.383,77.061-69.253c13.462,11.103,30.704,17.779,49.476,17.779
	c42.941,0,77.877-34.935,77.877-77.876c0-18.859-6.741-36.169-17.935-49.659C481.435,328.925,511.893,295.909,511.893,255.912z
	 M305.098,374.56c-2.701-2.217-5.558-4.251-8.545-6.093c3.535-1.278,6.991-2.72,10.362-4.313
	C306.086,367.544,305.467,371.014,305.098,374.56z M206.898,137.44c2.644,2.169,5.438,4.16,8.355,5.97
	c-3.451,1.253-6.826,2.664-10.122,4.217C205.934,144.307,206.538,140.911,206.898,137.44z M206.902,374.586
	c-0.366-3.549-0.987-7.021-1.816-10.412c3.374,1.593,6.832,3.034,10.368,4.311C212.465,370.329,209.606,372.366,206.902,374.586z
	 M368.482,296.638c1.85,2.985,3.888,5.841,6.115,8.539c-3.557,0.362-7.038,0.985-10.44,1.812
	C365.753,303.62,367.199,300.169,368.482,296.638z M255.979,356.812c-55.391,0-100.484-44.868-100.883-100.168
	c0.003-0.245,0.019-0.487,0.019-0.733c0-0.246-0.016-0.489-0.019-0.733c0.397-55.299,45.49-100.167,100.883-100.167
	c55.637,0,100.901,45.264,100.901,100.9C356.881,311.549,311.617,356.812,255.979,356.812z M147.799,306.979
	c-3.387-0.822-6.855-1.441-10.398-1.802c2.217-2.686,4.246-5.532,6.09-8.502C144.768,300.19,146.209,303.626,147.799,306.979z
	 M143.492,215.147c-1.809-2.913-3.797-5.701-5.964-8.342c3.467-0.36,6.861-0.963,10.178-1.764
	C146.154,208.333,144.743,211.702,143.492,215.147z M305.096,137.414c0.36,3.486,0.968,6.898,1.774,10.235
	c-3.309-1.562-6.699-2.979-10.165-4.237C299.635,141.594,302.442,139.593,305.096,137.414z M364.249,205.033
	c3.331,0.806,6.74,1.413,10.221,1.774c-2.177,2.65-4.173,5.453-5.989,8.379C367.224,211.724,365.808,208.338,364.249,205.033z
	 M382.554,70.215c32.607,0,59.135,26.527,59.135,59.135c0,32.607-26.527,59.133-59.135,59.133s-59.135-26.527-59.135-59.133
	C323.421,96.743,349.947,70.215,382.554,70.215z M255.979,18.742c32.402,0,58.764,26.362,58.764,58.762
	c0,32.403-26.362,58.764-58.764,58.764s-58.764-26.362-58.764-58.764C197.216,45.104,223.578,18.742,255.979,18.742z
	 M129.442,70.215c32.607,0,59.135,26.527,59.135,59.135c0,32.607-26.527,59.133-59.135,59.133s-59.135-26.527-59.135-59.133
	C70.309,96.743,96.836,70.215,129.442,70.215z M18.847,255.912c0-32.402,26.362-58.762,58.764-58.762
	c32.074,0,58.213,25.834,58.739,57.785c-0.003,0.326-0.012,0.651-0.012,0.977c0,0.326,0.01,0.651,0.012,0.977
	c-0.526,31.952-26.664,57.786-58.739,57.786C45.209,314.675,18.847,288.314,18.847,255.912z M129.442,441.784
	c-32.607,0-59.135-26.527-59.135-59.133c0-32.608,26.527-59.135,59.135-59.135s59.135,26.527,59.135,59.135
	C188.577,415.257,162.049,441.784,129.442,441.784z M256.017,493.258c-32.402,0-58.764-26.362-58.764-58.762
	c0-32.403,26.362-58.764,58.764-58.764s58.764,26.362,58.764,58.764C314.78,466.896,288.42,493.258,256.017,493.258z
	 M382.554,441.784c-32.607,0-59.135-26.527-59.135-59.133c0-32.608,26.527-59.135,59.135-59.135s59.135,26.527,59.135,59.135
	C441.689,415.257,415.162,441.784,382.554,441.784z M434.387,314.675c-32.402,0-58.764-26.362-58.764-58.764
	s26.362-58.762,58.764-58.762s58.764,26.362,58.764,58.762C493.15,288.314,466.788,314.675,434.387,314.675z"/>
<circle cx="151.225" cy="9.371" r="9.371"/>
<circle cx="359.815" cy="9.371" r="9.371"/>
<circle cx="495.259" cy="156.974" r="9.371"/>
<circle cx="501.957" cy="357.467" r="9.371"/>
<path style="fill:#634E9B;" d="M284.123,159.944L284.123,159.944c1.619-2.364,5.323-1.161,5.244,1.704l0,0
	c-0.662,23.949,22.933,41.092,45.505,33.062l0,0c2.7-0.961,4.989,2.189,3.241,4.461l0,0c-14.613,18.985-5.6,46.725,17.382,53.494
	l0,0c2.749,0.81,2.749,4.704,0,5.514l0,0c-22.982,6.77-31.994,34.51-17.382,53.494l0,0c1.748,2.272-0.541,5.422-3.241,4.461l0,0
	c-22.572-8.03-46.167,9.113-45.505,33.062l0,0c0.079,2.865-3.624,4.068-5.244,1.704l0,0c-13.541-19.764-42.708-19.764-56.247,0l0,0
	c-1.619,2.364-5.323,1.161-5.244-1.704l0,0c0.662-23.949-22.933-41.092-45.505-33.062l0,0c-2.7,0.961-4.989-2.189-3.241-4.461l0,0
	c14.613-18.985,5.6-46.725-17.382-53.494l0,0c-2.749-0.81-2.749-4.704,0-5.514l0,0c22.982-6.77,31.994-34.51,17.382-53.494l0,0
	c-1.748-2.272,0.541-5.422,3.241-4.461l0,0c22.572,8.03,46.167-9.113,45.505-33.062l0,0c-0.079-2.865,3.624-4.068,5.244-1.704l0,0
	C241.415,179.708,270.582,179.708,284.123,159.944z"/>
<g>
	<circle style="fill:#F1709F;" cx="204.278" cy="217.324" r="6.937"/>
	<circle style="fill:#F1709F;" cx="235.778" cy="192.971" r="6.937"/>
	<circle style="fill:#F1709F;" cx="276.124" cy="192.134" r="6.937"/>
	<circle style="fill:#F1709F;" cx="309.635" cy="216.037" r="6.937"/>
	<circle style="fill:#F1709F;" cx="308.136" cy="294.917" r="6.937"/>
	<circle style="fill:#F1709F;" cx="276.124" cy="317.983" r="6.937"/>
	<circle style="fill:#F1709F;" cx="235.778" cy="318.82" r="6.937"/>
	<circle style="fill:#F1709F;" cx="204.278" cy="294.917" r="6.937"/>
	<circle style="fill:#F1709F;" cx="322.005" cy="255.421" r="6.937"/>
	<circle style="fill:#F1709F;" cx="190.446" cy="255.421" r="6.937"/>
</g>
<circle style="fill:#FFDB6C;" cx="255.42" cy="255.908" r="40.384"/>
<circle style="fill:#FFFFFF;" cx="255.42" cy="255.908" r="17.127"/>
</svg>