<svg width="51" height="50" viewBox="0 0 51 50" fill="none" xmlns="http://www.w3.org/2000/svg">
<g id="Layer_1" clip-path="url(#clip0_436_542)">
<path id="Vector" d="M44.0402 36.7352C44.0027 36.704 43.9589 36.6758 43.9246 36.6571L35.8032 31.9855L35.7126 31.9386C35.6782 31.9199 35.6438 31.9011 35.6063 31.8855C32.719 30.5356 30.741 33.1354 29.288 35.0478C29.0099 35.4197 28.6599 35.8821 28.3974 36.1446C28.0662 36.4758 27.7912 36.6821 27.5662 36.7696C27.5068 36.7915 27.4381 36.8071 27.3287 36.754C23.9789 35.0416 21.1979 32.9917 18.8261 30.4825C16.87 28.417 15.167 26.0359 13.4765 22.9923C13.289 22.3517 14.1983 21.6236 15.317 20.8143C15.6857 20.5487 16.0138 20.3081 16.3044 20.0612C17.3981 19.2644 18.1105 18.4551 18.4855 17.5833C19.0105 16.3552 18.8417 15.1616 17.9918 14.0397L12.814 5.28404C12.5453 4.79657 12.0547 4.48097 11.5047 4.44034C8.51427 4.17473 5.9863 4.85594 3.99268 6.46209C2.0053 8.04637 0.702259 10.4806 0.21479 13.496C-0.516415 18.0676 0.627264 23.2548 3.52396 28.4951C6.43628 33.7573 11.0547 39.0069 16.2044 42.8973C17.42 43.8004 18.6293 44.5566 19.7979 45.2878L20.2167 45.5534C23.0977 47.3345 25.4945 48.4876 27.7631 49.1907C29.5348 49.7344 31.2535 50.0031 32.969 50.0031C33.7752 50.0031 34.5845 49.9438 35.3938 49.825C37.4343 49.5219 39.0186 49.0907 40.3748 48.4657C42.2309 47.6283 43.6402 46.3784 44.5651 44.7535C45.3745 43.3317 45.8369 41.7505 45.8369 40.41C45.8244 38.807 45.2026 37.5383 44.0402 36.7383V36.7352ZM43.4808 44.1316C42.6778 45.5409 41.4935 46.5846 39.8561 47.3252C38.6061 47.9001 37.1312 48.3001 35.2095 48.5845C32.8346 48.9344 30.5816 48.747 28.1287 47.9939C25.9663 47.3252 23.6602 46.2096 20.8822 44.4941L20.4604 44.2254C19.3136 43.5098 18.1262 42.7661 16.9544 41.8974C11.9453 38.1132 7.44871 33.0073 4.61764 27.892C1.85844 22.8986 0.764755 17.9895 1.44909 13.696C1.88656 10.9899 3.03336 8.82757 4.77075 7.43391C6.25504 6.23711 8.1018 5.63089 10.2735 5.63089C10.6391 5.63089 11.0141 5.64652 11.3985 5.68089C11.5297 5.69027 11.6516 5.76838 11.7234 5.89963L16.9325 14.7053L16.9762 14.7678C17.57 15.5365 17.6824 16.2709 17.3356 17.0864C17.0544 17.7395 16.4544 18.4051 15.5513 19.0582L15.5107 19.0894C15.2545 19.3082 14.9389 19.5394 14.5858 19.7956C13.3671 20.68 11.6984 21.8924 12.3359 23.5017L12.6734 23.3735L12.3609 23.5454C14.1139 26.7077 15.8826 29.1826 17.9231 31.3387C20.3948 33.9541 23.2852 36.0884 26.7756 37.8695C27.1881 38.0695 27.6224 38.0914 28.0224 37.932C28.413 37.782 28.8161 37.4977 29.2848 37.0258C29.538 36.7727 29.8411 36.404 30.3004 35.7884C31.9441 33.626 33.2502 32.1605 35.1095 33.0323C35.1439 33.0511 35.1782 33.0698 35.2157 33.0886L43.2902 37.732C43.3121 37.7476 43.3308 37.7633 43.3433 37.7695C44.1652 38.3351 44.587 39.2257 44.5964 40.4162C44.5964 41.5412 44.1933 42.8973 43.4871 44.1347L43.4808 44.1316Z" fill="white"/>
<path id="Vector_2" d="M36.239 2.95918C29.8801 -0.199997 23.8086 -0.00313472 23.5555 0.0062397C23.2117 0.0187389 22.943 0.309346 22.9555 0.653074C22.968 0.996803 23.2586 1.26866 23.6023 1.25304C23.6617 1.25304 29.6488 1.06555 35.7266 4.09973C43.8292 8.14636 48.257 15.7146 48.8914 26.6015C48.9101 26.9327 49.1851 27.1889 49.5132 27.1889C49.5257 27.1889 49.5382 27.1889 49.5507 27.1889C49.8944 27.1702 50.1569 26.8733 50.1382 26.5296C49.3132 12.3492 42.1231 5.884 36.239 2.9623V2.95918Z" fill="white"/>
<path id="Vector_3" d="M24.5351 7.81511C24.5758 7.81511 28.8005 7.68387 33.0784 9.82748C38.7686 12.6742 41.8778 18.002 42.3247 25.664C42.3434 25.9952 42.6184 26.2515 42.9465 26.2515C42.959 26.2515 42.9715 26.2515 42.984 26.2515C43.3277 26.2327 43.5902 25.9359 43.5715 25.5921C42.9809 15.424 37.8187 10.7868 33.5908 8.68693C29.0286 6.42145 24.6695 6.55894 24.4851 6.56831C24.1414 6.58081 23.8727 6.87142 23.8852 7.21515C23.8977 7.55887 24.1914 7.83386 24.532 7.81511H24.5351Z" fill="white"/>
<path id="Vector_4" d="M23.2641 13.4648C23.2766 13.8085 23.5609 14.0678 23.9109 14.0647C24.3765 14.0428 35.3508 13.7991 36.0758 26.289C36.0945 26.6202 36.3695 26.8764 36.6976 26.8764C36.7101 26.8764 36.7226 26.8764 36.7351 26.8764C37.0789 26.8577 37.3413 26.5608 37.3226 26.2171C36.5258 12.4898 23.989 12.8148 23.8641 12.8179C23.5203 12.8304 23.2516 13.121 23.2641 13.4648Z" fill="white"/>
</g>
<defs>
<clipPath id="clip0_436_542">
<rect width="50.1375" height="50" fill="white"/>
</clipPath>
</defs>
</svg>
