<svg width="24" height="19" viewBox="0 0 24 19" fill="none" xmlns="http://www.w3.org/2000/svg">
<g id="_&#195;&#131;&#226;&#128;&#152;&#195;&#131;&#194;&#171;&#195;&#131;&#194;&#174;&#195;&#131;&#194;&#169;_1" clip-path="url(#clip0_443_655)">
<path id="Vector" d="M23.0489 2.38197C22.2071 2.71557 21.3061 2.92757 20.3645 3.00551C21.3404 2.47551 21.8922 1.70544 22.2788 0.651658C21.3653 1.14425 20.5703 1.39055 19.5103 1.55891C18.6966 0.645423 17.5119 0.0499445 16.1806 6.15129e-05C13.6241 -0.0903514 11.4823 1.88003 11.3918 4.396C11.3794 4.75454 11.4074 5.1006 11.4729 5.43731C7.63503 5.1193 3.94992 3.04292 1.76131 0.208947C1.34042 0.866779 0.529819 3.93458 3.32015 6.48173C2.56255 6.43185 1.85484 6.20114 1.24377 5.83949C1.24377 5.8582 1.24377 5.8769 1.24377 5.89561C1.22195 6.47862 1.55866 9.23465 4.80105 10.4942C4.40822 10.5846 3.99669 10.6251 3.5758 10.6127C3.27962 10.6033 2.98967 10.5628 2.70908 10.5004C3.23597 12.3305 5.3217 13.9891 6.92419 13.8145C5.29676 14.9837 0.364581 15.5199 0.00292969 15.4638C2.0076 16.8293 4.72311 18.0203 7.33573 18.1107C14.5719 18.3632 18.8899 13.1505 20.243 7.99069C20.483 7.07721 20.6233 6.15749 20.6545 5.25025C20.6607 5.05383 20.6638 4.85742 20.6638 4.661C21.5898 4.04994 22.4035 3.27363 23.0551 2.38197H23.0489Z" fill="white"/>
</g>
<defs>
<clipPath id="clip0_443_655">
<rect width="23.0491" height="18.12" fill="white"/>
</clipPath>
</defs>
</svg>
