<svg width="30" height="26" viewBox="0 0 30 26" fill="none" xmlns="http://www.w3.org/2000/svg">
<path id="Vector" d="M26.4103 7.19312H25.0271L23.9595 8.7249H25.7005L27.756 11.1911L19.4618 23.0899L15.7701 17.7938L22.0918 8.7249H22.0966L23.1663 7.19312H23.1599L25.0464 4.48667L21.7842 0.571594H7.88774L4.62556 4.48667L6.51258 7.19312H6.51045L9.57098 11.5752H9.56723L13.9024 17.7938L10.2107 23.0899L1.91644 11.1911L3.97141 8.7249H5.71723L4.64963 7.19312H3.26218L0 11.1082L10.2101 25.7559L14.8309 19.1269L14.8362 19.1344L14.8416 19.1269L19.4623 25.7559L29.6725 11.1082L26.4103 7.19312ZM14.8357 16.4532L10.2583 9.89958L10.2572 9.90066L9.43779 8.7249H9.44154L8.37286 7.19312H8.37072L6.542 4.56961L8.59698 2.10337H21.075L23.1305 4.56961L21.3018 7.19312H21.2996L20.2309 8.7249H20.2347L19.4153 9.90066L19.4142 9.89958L14.8368 16.4532H14.8357Z" fill="white"/>
</svg>
